<?xml version="1.0" encoding="UTF-8"?>
<!-- Generator: Adobe Illustrator 16.0.0, SVG Export Plug-In . SVG Version: 6.00 Build 0)  -->
<!DOCTYPE svg PUBLIC "-//W3C//DTD SVG 1.1//EN" "http://www.w3.org/Graphics/SVG/1.1/DTD/svg11.dtd">
<svg version="1.1" id="Layer_1" xmlns="http://www.w3.org/2000/svg" xmlns:xlink="http://www.w3.org/1999/xlink" x="0px" y="0px" width="400px" height="200px" viewBox="0 0 724 93.146" enable-background="new 0 0 724 93.146" xml:space="preserve">
<g>
	<path fill="#1A5BB5" d="M104.133,1.28c-12.432,0-23.419,6.302-29.944,15.876C67.666,7.582,56.68,1.28,44.244,1.28   c-16.353,0-30.193,10.899-34.671,25.811l8.207-9.095l7.638,7.637c3.939-6.255,10.887-10.424,18.826-10.424   c12.307,0,22.287,9.977,22.287,22.286c0,12.308-9.98,22.284-22.287,22.284c-9.872,0-18.232-6.426-21.159-15.319h12.434   L17.233,25.917L0,44.459h8.71c3.258,16.646,17.949,29.247,35.534,29.247c12.436,0,23.421-6.3,29.945-15.876   c6.525,9.576,17.513,15.876,29.944,15.876c19.968,0,36.214-16.242,36.214-36.211C140.348,17.526,124.102,1.28,104.133,1.28z    M104.133,59.779c-12.305,0-22.281-9.977-22.281-22.284c0-12.31,9.976-22.286,22.281-22.286c12.31,0,22.285,9.977,22.285,22.286   C126.418,49.802,116.443,59.779,104.133,59.779z"/>
	<g>
		<path d="M163.312,14.008V1.229h13.812v12.779H163.312z M163.312,73.288V21.086h13.812v52.201H163.312z"/>
		<path d="M238.762,73.288H224.95V46.646c0-5.636-0.296-9.281-0.884-10.937c-0.59-1.654-1.548-2.94-2.875-3.858    c-1.328-0.917-2.926-1.376-4.793-1.376c-2.392,0-4.539,0.656-6.438,1.966c-1.902,1.311-3.204,3.047-3.909,5.21    c-0.704,2.163-1.057,6.161-1.057,11.993v23.643h-13.812V21.086h12.829v7.669c4.554-5.899,10.289-8.848,17.203-8.848    c3.049,0,5.833,0.548,8.357,1.647c2.522,1.098,4.432,2.499,5.726,4.202c1.294,1.704,2.194,3.638,2.703,5.8    c0.509,2.163,0.763,5.26,0.763,9.29V73.288z"/>
		<path d="M246.724,21.086h7.669v-3.932c0-4.391,0.466-7.668,1.4-9.831c0.935-2.162,2.653-3.923,5.161-5.283    C263.461,0.681,266.631,0,270.465,0c3.934,0,7.782,0.59,11.552,1.77l-1.868,9.634c-2.197-0.523-4.311-0.787-6.341-0.787    c-1.998,0-3.434,0.467-4.301,1.401c-0.869,0.934-1.303,2.728-1.303,5.382v3.686h10.322V31.95h-10.322v41.338h-13.812V31.95h-7.669    V21.086z"/>
		<path d="M288.266,14.008V1.229h13.812v12.779H288.266z M288.266,73.288V21.086h13.812v52.201H288.266z"/>
		<path d="M362.871,73.288h-13.812V46.646c0-5.636-0.296-9.281-0.885-10.937c-0.59-1.654-1.548-2.94-2.876-3.858    c-1.327-0.917-2.925-1.376-4.792-1.376c-2.394,0-4.54,0.656-6.44,1.966c-1.899,1.311-3.202,3.047-3.906,5.21    c-0.706,2.163-1.057,6.161-1.057,11.993v23.643h-13.813V21.086h12.829v7.669c4.554-5.899,10.289-8.848,17.203-8.848    c3.047,0,5.832,0.548,8.355,1.647c2.523,1.098,4.432,2.499,5.727,4.202c1.295,1.704,2.195,3.638,2.704,5.8    c0.508,2.163,0.762,5.26,0.762,9.29V73.288z"/>
		<path d="M375.751,14.008V1.229h13.812v12.779H375.751z M375.751,73.288V21.086h13.812v52.201H375.751z"/>
		<path d="M429.207,21.086v11.011h-9.436v21.037c0,4.261,0.09,6.743,0.27,7.447c0.18,0.705,0.59,1.286,1.229,1.744    c0.639,0.46,1.417,0.688,2.336,0.688c1.277,0,3.129-0.442,5.553-1.327l1.181,10.716c-3.212,1.376-6.85,2.064-10.912,2.064    c-2.491,0-4.736-0.418-6.733-1.253c-2-0.835-3.467-1.917-4.4-3.245c-0.933-1.327-1.58-3.121-1.94-5.382    c-0.296-1.605-0.443-4.849-0.443-9.732V32.097h-6.341V21.086h6.341V10.715l13.862-8.062v18.433H429.207z"/>
		<path d="M469.445,56.673l13.762,2.311c-1.769,5.046-4.563,8.889-8.379,11.526c-3.819,2.638-8.595,3.957-14.329,3.957    c-9.077,0-15.795-2.966-20.152-8.896c-3.44-4.752-5.161-10.748-5.161-17.99c0-8.651,2.261-15.426,6.782-20.325    c4.522-4.898,10.24-7.348,17.155-7.348c7.766,0,13.893,2.565,18.383,7.693c4.489,5.128,6.636,12.984,6.439,23.568H449.34    c0.099,4.096,1.213,7.283,3.343,9.561c2.129,2.277,4.784,3.416,7.963,3.416c2.162,0,3.98-0.59,5.455-1.77    S468.69,59.295,469.445,56.673z M470.23,42.714c-0.097-3.998-1.13-7.037-3.096-9.118c-1.966-2.08-4.357-3.121-7.177-3.121    c-3.015,0-5.505,1.098-7.472,3.293c-1.966,2.195-2.933,5.178-2.898,8.946H470.23z"/>
		<path d="M493.719,73.288V1.819h14.549v59.328h36.177v12.141H493.719z"/>
		<path d="M548.705,46.45c0-4.587,1.13-9.027,3.392-13.32c2.261-4.293,5.463-7.57,9.609-9.831c4.145-2.261,8.773-3.391,13.886-3.391    c7.896,0,14.368,2.565,19.416,7.693c5.045,5.128,7.569,11.608,7.569,19.439c0,7.898-2.55,14.443-7.644,19.636    c-5.096,5.195-11.511,7.792-19.244,7.792c-4.784,0-9.347-1.082-13.689-3.244c-4.342-2.163-7.643-5.333-9.903-9.511    C549.834,57.534,548.705,52.447,548.705,46.45z M562.86,47.187c0,5.178,1.229,9.143,3.688,11.896    c2.457,2.752,5.487,4.128,9.093,4.128c3.604,0,6.627-1.376,9.069-4.128c2.44-2.753,3.661-6.75,3.661-11.993    c0-5.112-1.221-9.044-3.661-11.798c-2.442-2.752-5.465-4.128-9.069-4.128c-3.605,0-6.636,1.376-9.093,4.128    C564.089,38.045,562.86,42.01,562.86,47.187z"/>
		<path d="M610.195,46.45c0-4.587,1.131-9.027,3.393-13.32c2.26-4.293,5.463-7.57,9.609-9.831c4.145-2.261,8.773-3.391,13.885-3.391    c7.896,0,14.368,2.565,19.415,7.693c5.046,5.128,7.569,11.608,7.569,19.439c0,7.898-2.548,14.443-7.644,19.636    c-5.095,5.195-11.509,7.792-19.243,7.792c-4.783,0-9.347-1.082-13.688-3.244c-4.342-2.163-7.644-5.333-9.903-9.511    C611.326,57.534,610.195,52.447,610.195,46.45z M624.35,47.187c0,5.178,1.23,9.143,3.688,11.896    c2.458,2.752,5.488,4.128,9.093,4.128c3.605,0,6.628-1.376,9.069-4.128c2.44-2.753,3.661-6.75,3.661-11.993    c0-5.112-1.221-9.044-3.661-11.798c-2.441-2.752-5.464-4.128-9.069-4.128c-3.604,0-6.635,1.376-9.093,4.128    C625.581,38.045,624.35,42.01,624.35,47.187z"/>
		<path d="M673.078,21.086h12.878v7.669c1.671-2.622,3.933-4.752,6.783-6.391c2.851-1.638,6.013-2.458,9.486-2.458    c6.062,0,11.207,2.376,15.435,7.127c4.227,4.752,6.34,11.372,6.34,19.858c0,8.717-2.13,15.492-6.39,20.325    c-4.261,4.833-9.421,7.25-15.483,7.25c-2.884,0-5.496-0.574-7.84-1.721c-2.343-1.146-4.809-3.112-7.397-5.898v26.297h-13.812    V21.086z M686.743,46.302c0,5.866,1.161,10.199,3.489,13.001c2.327,2.802,5.16,4.203,8.504,4.203c3.21,0,5.881-1.286,8.011-3.859    c2.131-2.572,3.196-6.791,3.196-12.657c0-5.473-1.099-9.536-3.293-12.19c-2.196-2.654-4.917-3.981-8.16-3.981    c-3.376,0-6.178,1.303-8.405,3.908C687.855,37.332,686.743,41.19,686.743,46.302z"/>
	</g>
</g>
</svg>
